<svg width="51" height="50" viewBox="0 0 51 50" fill="none" xmlns="http://www.w3.org/2000/svg">
<path fill-rule="evenodd" clip-rule="evenodd" d="M0 3.14288C0 1.48603 1.34315 0.142883 3 0.142883H47.5131C49.17 0.142883 50.5131 1.48603 50.5131 3.14288V47C50.5131 48.6569 49.17 50 47.5131 50H3C1.34314 50 0 48.6569 0 47V3.14288ZM20.4811 25.0833V36.9156H14.4323V12.867C14.4323 12.7506 14.4676 12.6692 14.5384 12.6226C14.6091 12.5761 14.7388 12.6343 14.9275 12.7972L30.0319 25.0833V13.1811H36.0807V37.2647C36.0807 37.4043 36.0454 37.4915 35.9746 37.5264C35.9039 37.5613 35.7742 37.4974 35.5855 37.3345L20.4811 25.0833ZM36.0807 40.8158H14.4323V42.7838H36.0807V40.8158Z" fill="#0073AA"/>
</svg>
